<svg width="16" height="16" viewBox="0 0 16 16" fill="none" xmlns="http://www.w3.org/2000/svg">
<g clip-path="url(#clip0_61385_198)">
<path d="M7.99902 0.166519C3.58202 0.166519 1.52588e-05 3.76252 1.52588e-05 8.19852C1.52588e-05 11.7465 2.29202 14.7565 5.47202 15.8195C5.87202 15.8935 6.01802 15.6455 6.01802 15.4325C6.01802 15.2415 6.01102 14.7365 6.00702 14.0665C3.78202 14.5515 3.31202 12.9895 3.31202 12.9895C2.94902 12.0615 2.42402 11.8145 2.42402 11.8145C1.69702 11.3165 2.47802 11.3265 2.47802 11.3265C3.28102 11.3835 3.70302 12.1545 3.70302 12.1545C4.41702 13.3815 5.57602 13.0275 6.03202 12.8215C6.10402 12.3025 6.31102 11.9485 6.54002 11.7475C4.76402 11.5445 2.89602 10.8555 2.89602 7.77852C2.89602 6.90152 3.20802 6.18452 3.72002 5.62252C3.63702 5.41952 3.36302 4.60252 3.79802 3.49752C3.79802 3.49752 4.47002 3.28152 5.99802 4.32052C6.63602 4.14252 7.32002 4.05352 8.00102 4.05052C8.68002 4.05452 9.36502 4.14252 10.004 4.32152C11.531 3.28252 12.202 3.49852 12.202 3.49852C12.638 4.60452 12.364 5.42052 12.282 5.62352C12.795 6.18552 13.104 6.90252 13.104 7.77952C13.104 10.8645 11.234 11.5435 9.45201 11.7425C9.73901 11.9905 9.99502 12.4805 9.99502 13.2295C9.99502 14.3035 9.98501 15.1695 9.98501 15.4325C9.98501 15.6475 10.129 15.8975 10.535 15.8185C13.71 14.7545 16 11.7455 16 8.19852C16 3.76252 12.418 0.166519 7.99902 0.166519Z" fill="#C4C4CC"/>
</g>
<defs>
<clipPath id="clip0_61385_198">
<rect width="16" height="16" fill="white"/>
</clipPath>
</defs>
</svg>
